
<svg width="801px" height="141px" viewBox="0 0 801 141" version="1.1" xmlns="http://www.w3.org/2000/svg" xmlns:xlink="http://www.w3.org/1999/xlink">
    <!-- Generator: Sketch 47.1 (45422) - http://www.bohemiancoding.com/sketch -->
    <desc>Created with Sketch.</desc>
    <defs></defs>
    <g id="sand" stroke="none" stroke-width="1" fill="none" fill-rule="evenodd">
        <path d="M66.8629213,47.2797425 L66.3841952,69.4966593 L448.169284,69.4828817 C485.69587,69.4828817 512.827638,70.7827077 529.022138,73.39048 C577.854665,78.5453915 616.772027,80.5890578 645,79.5617241 C669.994044,77.1864264 687.081155,66.3767195 696.201887,47.2497799 C703.824563,24.4565368 696.0906,14.9847255 671.864802,18.5747496 C706.4918,-8.41710822 748.957814,-5.49962296 799.262845,27.3272054 L800.389923,28.4777329 L800.389923,140.571892 L1.03194578,140.571892 L0.007240295,69.4990547 L56.231449,69.4970257 L55.8972655,48.3471413 C54.9134912,49.5392832 54.0531511,50.1353544 53.316245,50.1353544 C52.6804604,50.1353544 52.1632488,49.6337719 51.7646105,48.6306069 C36.3712325,49.6977781 26.1674834,49.201248 15.3296792,47.1895713 L14.6353023,41.1297915 C21.8950857,36.9094791 33.3433931,34.1540919 52.4981355,31.6790734 C54.2721446,28.8831469 56.0175673,27.3331978 57.7344034,27.029226 C59.4956772,26.7173864 59.7352135,25.3872715 58.4530123,23.0388814 C53.9013799,18.5759635 50.6245483,10.6509611 55.2533735,11.0119174 C59.8821987,11.3728736 62.0028171,15.3381749 61.3618675,21.5795796 C61.844892,24.602812 62.7836601,25.9764156 64.3238823,25.5822033 C66.3765808,25.0568251 68.4401479,27.2225386 68.4995928,29.8428302 C70.1634087,29.6705251 71.8711867,29.4981276 73.6242141,29.3252041 C106.060403,26.1256086 110.412948,28.6512438 112.078254,33.9893488 C111.536512,39.3412423 105.652706,42.8192727 75.4115761,46.3308175 C72.4103059,46.6793196 69.5663864,46.9955809 66.8629213,47.2797425 Z M60.4005001,69.4968753 L62.3025678,69.4968066 L60.9101627,54.3778337 L60.4005001,69.4968753 Z" id="Combined-Shape" fill="#000000"></path>
    </g>
</svg>
